<svg class="bob" font-family="arial" font-size="14" height="96" width="320" xmlns="http://www.w3.org/2000/svg">
<defs>
<marker id="triangle" markerHeight="8" markerWidth="8" orient="auto" refX="4" refY="2" viewBox="0 0 8 4">
<polygon class="fg_fill" points="0,0 0,4 8,2 0,0"/>
</marker>
<marker id="clear_triangle" markerHeight="10" markerWidth="10" orient="auto" refX="1" refY="7" viewBox="0 0 20 14">
<polygon class="bg_fill fg_stroke" points="2,2 2,12 18,7 2,2"/>
</marker>
<marker id="circle" markerHeight="5" markerWidth="5" orient="auto" refX="10" refY="10" viewBox="0 0 20 20">
<circle class="fg_fill" cx="10" cy="10" r="8"/>
</marker>
<marker id="square" markerHeight="5" markerWidth="5" orient="auto" refX="10" refY="10" viewBox="0 0 20 20">
<rect class="fg_fill" height="20" width="20" x="0" y="0"/>
</marker>
<marker id="open_circle" markerHeight="10" markerWidth="10" orient="auto" refX="10" refY="10" viewBox="0 0 20 20">
<circle class="bg_fill fg_stroke" cx="10" cy="10" r="4"/>
</marker>
<marker id="big_open_circle" markerHeight="20" markerWidth="20" orient="auto" refX="20" refY="20" viewBox="0 0 40 40">
<circle class="bg_fill fg_stroke" cx="20" cy="20" r="6"/>
</marker>
</defs>
<style type="text/css">

rect.backdrop {
    fill: white;
}

.fg_fill {
    fill: black;
}


.bg_fill {
    fill: white;
}

.fg_stroke {
    stroke: black;
    stroke-width: 2;
}

.no_fill {
    fill: none;
}

.dashed {
    stroke-dasharray: 5;
}


text{
    fill: black;
}

line, path {
    stroke-linecap: round;
    stroke-linejoin: miter;
    stroke-opacity: 1;
    fill-opacity: 1;
}




tspan.head{
    fill: none;
    stroke: none;
}
    
</style>
<rect class="backdrop" height="96" width="320" x="0" y="0"/>
<g>
<line class="fg_stroke" x1="2" x2="2" y1="80" y2="92"/>
<line class="fg_stroke" x1="2" x2="22" y1="92" y2="92"/>
<line class="fg_stroke" x1="22" x2="22" y1="60" y2="92"/>
<line class="fg_stroke" x1="22" x2="40" y1="60" y2="60"/>
<line class="fg_stroke" x1="22" x2="22" y1="92" y2="64"/>
</g>
<g>
<line class="fg_stroke" x1="6" x2="6" y1="80" y2="88"/>
<line class="fg_stroke" x1="6" x2="18" y1="88" y2="88"/>
<line class="fg_stroke" x1="18" x2="18" y1="56" y2="88"/>
<line class="fg_stroke" x1="18" x2="40" y1="56" y2="56"/>
<line class="fg_stroke" x1="18" x2="18" y1="88" y2="64"/>
</g>
<g>
<line class="fg_stroke" x1="18" x2="18" y1="24" y2="32"/>
<line class="fg_stroke" x1="18" x2="40" y1="24" y2="24"/>
</g>
<g>
<line class="fg_stroke" x1="22" x2="22" y1="28" y2="32"/>
<line class="fg_stroke" x1="22" x2="40" y1="28" y2="28"/>
</g>
<g>
<line class="fg_stroke" x1="42" x2="42" y1="80" y2="92"/>
<line class="fg_stroke" x1="42" x2="62" y1="92" y2="92"/>
<line class="fg_stroke" x1="62" x2="62" y1="56" y2="92"/>
<line class="fg_stroke" x1="62" x2="62" y1="92" y2="64"/>
</g>
<g>
<line class="fg_stroke" x1="46" x2="46" y1="80" y2="88"/>
<line class="fg_stroke" x1="46" x2="58" y1="88" y2="88"/>
<line class="fg_stroke" x1="58" x2="58" y1="60" y2="88"/>
<line class="fg_stroke" x1="58" x2="58" y1="88" y2="64"/>
</g>
<g>
<line class="fg_stroke" x1="48" x2="54" y1="8" y2="8"/>
<line class="fg_stroke" x1="54" x2="54" y1="8" y2="16"/>
</g>
<g>
<line class="fg_stroke" x1="48" x2="50" y1="12" y2="12"/>
<line class="fg_stroke" x1="50" x2="50" y1="12" y2="16"/>
</g>
<g>
<line class="fg_stroke" x1="50" x2="50" y1="40" y2="48"/>
<line class="fg_stroke" x1="50" x2="58" y1="40" y2="40"/>
<line class="fg_stroke" x1="58" x2="58" y1="28" y2="40"/>
</g>
<g>
<line class="fg_stroke" x1="54" x2="54" y1="44" y2="48"/>
<line class="fg_stroke" x1="54" x2="62" y1="44" y2="44"/>
<line class="fg_stroke" x1="62" x2="62" y1="24" y2="44"/>
</g>
<g>
<line class="fg_stroke" x1="56" x2="62" y1="24" y2="24"/>
</g>
<g>
<line class="fg_stroke" x1="56" x2="58" y1="28" y2="28"/>
</g>
<g>
<line class="fg_stroke" x1="56" x2="62" y1="56" y2="56"/>
</g>
<g>
<line class="fg_stroke" x1="56" x2="58" y1="60" y2="60"/>
</g>
<g>
<line class="fg_stroke" x1="66" x2="66" y1="80" y2="92"/>
<line class="fg_stroke" x1="66" x2="126" y1="92" y2="92"/>
<line class="fg_stroke" x1="126" x2="126" y1="72" y2="92"/>
</g>
<g>
<line class="fg_stroke" x1="70" x2="70" y1="80" y2="88"/>
<line class="fg_stroke" x1="70" x2="122" y1="88" y2="88"/>
<line class="fg_stroke" x1="122" x2="122" y1="76" y2="88"/>
</g>
<g>
<line class="fg_stroke" x1="82" x2="82" y1="24" y2="32"/>
<line class="fg_stroke" x1="82" x2="122" y1="24" y2="24"/>
<line class="fg_stroke" x1="122" x2="122" y1="12" y2="24"/>
</g>
<g>
<line class="fg_stroke" x1="82" x2="82" y1="56" y2="64"/>
<line class="fg_stroke" x1="82" x2="106" y1="56" y2="56"/>
<line class="fg_stroke" x1="106" x2="106" y1="44" y2="56"/>
</g>
<g>
<line class="fg_stroke" x1="86" x2="86" y1="28" y2="32"/>
<line class="fg_stroke" x1="86" x2="126" y1="28" y2="28"/>
<line class="fg_stroke" x1="126" x2="126" y1="8" y2="28"/>
</g>
<g>
<line class="fg_stroke" x1="86" x2="86" y1="60" y2="64"/>
<line class="fg_stroke" x1="86" x2="110" y1="60" y2="60"/>
<line class="fg_stroke" x1="110" x2="110" y1="40" y2="60"/>
</g>
<g>
<line class="fg_stroke" x1="104" x2="110" y1="40" y2="40"/>
</g>
<g>
<line class="fg_stroke" x1="104" x2="106" y1="44" y2="44"/>
</g>
<g>
<line class="fg_stroke" x1="120" x2="126" y1="8" y2="8"/>
</g>
<g>
<line class="fg_stroke" x1="120" x2="122" y1="12" y2="12"/>
</g>
<g>
<line class="fg_stroke" x1="120" x2="126" y1="72" y2="72"/>
</g>
<g>
<line class="fg_stroke" x1="120" x2="122" y1="76" y2="76"/>
</g>
<g>
<line class="fg_stroke" x1="130" x2="130" y1="64" y2="76"/>
<line class="fg_stroke" x1="130" x2="136" y1="76" y2="76"/>
</g>
<g>
<line class="fg_stroke" x1="134" x2="134" y1="64" y2="72"/>
<line class="fg_stroke" x1="134" x2="136" y1="72" y2="72"/>
</g>
<g>
<line class="fg_stroke" x1="138" x2="138" y1="80" y2="92"/>
<line class="fg_stroke" x1="138" x2="190" y1="92" y2="92"/>
<line class="fg_stroke" x1="190" x2="190" y1="76" y2="92"/>
<line class="fg_stroke" x1="190" x2="198" y1="76" y2="76"/>
<line class="fg_stroke" x1="198" x2="198" y1="40" y2="76"/>
<line class="fg_stroke" x1="198" x2="198" y1="76" y2="48"/>
</g>
<g>
<line class="fg_stroke" x1="142" x2="142" y1="80" y2="88"/>
<line class="fg_stroke" x1="142" x2="186" y1="88" y2="88"/>
<line class="fg_stroke" x1="186" x2="186" y1="72" y2="88"/>
<line class="fg_stroke" x1="186" x2="194" y1="72" y2="72"/>
<line class="fg_stroke" x1="194" x2="194" y1="44" y2="72"/>
<line class="fg_stroke" x1="194" x2="194" y1="72" y2="48"/>
</g>
<g>
<line class="fg_stroke" x1="146" x2="146" y1="24" y2="64"/>
<line class="fg_stroke" x1="146" x2="186" y1="24" y2="24"/>
<line class="fg_stroke" x1="146" x2="146" y1="32" y2="64"/>
<line class="fg_stroke" x1="146" x2="146" y1="64" y2="48"/>
<line class="fg_stroke" x1="186" x2="186" y1="12" y2="24"/>
</g>
<g>
<line class="fg_stroke" x1="150" x2="150" y1="28" y2="64"/>
<line class="fg_stroke" x1="150" x2="190" y1="28" y2="28"/>
<line class="fg_stroke" x1="150" x2="150" y1="32" y2="64"/>
<line class="fg_stroke" x1="150" x2="150" y1="64" y2="48"/>
<line class="fg_stroke" x1="190" x2="190" y1="8" y2="28"/>
</g>
<g>
<line class="fg_stroke" x1="184" x2="190" y1="8" y2="8"/>
</g>
<g>
<line class="fg_stroke" x1="184" x2="186" y1="12" y2="12"/>
</g>
<g>
<line class="fg_stroke" x1="192" x2="198" y1="40" y2="40"/>
</g>
<g>
<line class="fg_stroke" x1="192" x2="194" y1="44" y2="44"/>
</g>
<g>
<line class="fg_stroke" x1="202" x2="202" y1="80" y2="92"/>
<line class="fg_stroke" x1="202" x2="222" y1="92" y2="92"/>
<line class="fg_stroke" x1="222" x2="222" y1="8" y2="92"/>
<line class="fg_stroke" x1="222" x2="222" y1="16" y2="92"/>
<line class="fg_stroke" x1="222" x2="222" y1="32" y2="92"/>
<line class="fg_stroke" x1="222" x2="222" y1="48" y2="92"/>
<line class="fg_stroke" x1="222" x2="222" y1="92" y2="64"/>
</g>
<g>
<line class="fg_stroke" x1="206" x2="206" y1="80" y2="88"/>
<line class="fg_stroke" x1="206" x2="218" y1="88" y2="88"/>
<line class="fg_stroke" x1="218" x2="218" y1="12" y2="88"/>
<line class="fg_stroke" x1="218" x2="218" y1="16" y2="88"/>
<line class="fg_stroke" x1="218" x2="218" y1="32" y2="88"/>
<line class="fg_stroke" x1="218" x2="218" y1="48" y2="88"/>
<line class="fg_stroke" x1="218" x2="218" y1="88" y2="64"/>
</g>
<g>
<line class="fg_stroke" x1="216" x2="222" y1="8" y2="8"/>
</g>
<g>
<line class="fg_stroke" x1="216" x2="218" y1="12" y2="12"/>
</g>
<g>
<line class="fg_stroke" x1="226" x2="226" y1="32" y2="44"/>
<line class="fg_stroke" x1="226" x2="232" y1="44" y2="44"/>
</g>
<g>
<line class="fg_stroke" x1="230" x2="230" y1="32" y2="40"/>
<line class="fg_stroke" x1="230" x2="232" y1="40" y2="40"/>
</g>
<g>
<line class="fg_stroke" x1="234" x2="234" y1="80" y2="92"/>
<line class="fg_stroke" x1="234" x2="254" y1="92" y2="92"/>
<line class="fg_stroke" x1="254" x2="254" y1="8" y2="92"/>
<line class="fg_stroke" x1="254" x2="254" y1="16" y2="92"/>
<line class="fg_stroke" x1="254" x2="254" y1="32" y2="92"/>
<line class="fg_stroke" x1="254" x2="254" y1="48" y2="92"/>
<line class="fg_stroke" x1="254" x2="254" y1="92" y2="64"/>
</g>
<g>
<line class="fg_stroke" x1="238" x2="238" y1="80" y2="88"/>
<line class="fg_stroke" x1="238" x2="250" y1="88" y2="88"/>
<line class="fg_stroke" x1="250" x2="250" y1="12" y2="88"/>
<line class="fg_stroke" x1="250" x2="250" y1="16" y2="88"/>
<line class="fg_stroke" x1="250" x2="250" y1="32" y2="88"/>
<line class="fg_stroke" x1="250" x2="250" y1="48" y2="88"/>
<line class="fg_stroke" x1="250" x2="250" y1="88" y2="64"/>
</g>
<g>
<line class="fg_stroke" x1="248" x2="254" y1="8" y2="8"/>
</g>
<g>
<line class="fg_stroke" x1="248" x2="250" y1="12" y2="12"/>
</g>
<g>
<line class="fg_stroke" x1="258" x2="258" y1="32" y2="44"/>
<line class="fg_stroke" x1="258" x2="264" y1="44" y2="44"/>
</g>
<g>
<line class="fg_stroke" x1="258" x2="258" y1="64" y2="76"/>
<line class="fg_stroke" x1="258" x2="264" y1="76" y2="76"/>
</g>
<g>
<line class="fg_stroke" x1="262" x2="262" y1="32" y2="40"/>
<line class="fg_stroke" x1="262" x2="264" y1="40" y2="40"/>
</g>
<g>
<line class="fg_stroke" x1="262" x2="262" y1="64" y2="72"/>
<line class="fg_stroke" x1="262" x2="264" y1="72" y2="72"/>
</g>
<g>
<line class="fg_stroke" x1="266" x2="266" y1="80" y2="92"/>
<line class="fg_stroke" x1="266" x2="310" y1="92" y2="92"/>
<line class="fg_stroke" x1="310" x2="310" y1="76" y2="92"/>
<line class="fg_stroke" x1="310" x2="318" y1="76" y2="76"/>
<line class="fg_stroke" x1="318" x2="318" y1="56" y2="76"/>
</g>
<g>
<line class="fg_stroke" x1="270" x2="270" y1="80" y2="88"/>
<line class="fg_stroke" x1="270" x2="306" y1="88" y2="88"/>
<line class="fg_stroke" x1="306" x2="306" y1="72" y2="88"/>
<line class="fg_stroke" x1="306" x2="314" y1="72" y2="72"/>
<line class="fg_stroke" x1="314" x2="314" y1="60" y2="72"/>
</g>
<g>
<line class="fg_stroke" x1="274" x2="274" y1="24" y2="32"/>
<line class="fg_stroke" x1="274" x2="296" y1="24" y2="24"/>
</g>
<g>
<line class="fg_stroke" x1="274" x2="274" y1="56" y2="64"/>
<line class="fg_stroke" x1="274" x2="296" y1="56" y2="56"/>
</g>
<g>
<line class="fg_stroke" x1="278" x2="278" y1="28" y2="32"/>
<line class="fg_stroke" x1="278" x2="296" y1="28" y2="28"/>
</g>
<g>
<line class="fg_stroke" x1="278" x2="278" y1="60" y2="64"/>
<line class="fg_stroke" x1="278" x2="296" y1="60" y2="60"/>
</g>
<g>
<line class="fg_stroke" x1="304" x2="310" y1="8" y2="8"/>
<line class="fg_stroke" x1="310" x2="310" y1="8" y2="16"/>
</g>
<g>
<line class="fg_stroke" x1="304" x2="306" y1="12" y2="12"/>
<line class="fg_stroke" x1="306" x2="306" y1="12" y2="16"/>
</g>
<g>
<line class="fg_stroke" x1="306" x2="306" y1="40" y2="48"/>
<line class="fg_stroke" x1="306" x2="314" y1="40" y2="40"/>
<line class="fg_stroke" x1="314" x2="314" y1="28" y2="40"/>
</g>
<g>
<line class="fg_stroke" x1="310" x2="310" y1="44" y2="48"/>
<line class="fg_stroke" x1="310" x2="318" y1="44" y2="44"/>
<line class="fg_stroke" x1="318" x2="318" y1="24" y2="44"/>
</g>
<g>
<line class="fg_stroke" x1="312" x2="318" y1="24" y2="24"/>
</g>
<g>
<line class="fg_stroke" x1="312" x2="314" y1="28" y2="28"/>
</g>
<g>
<line class="fg_stroke" x1="312" x2="318" y1="56" y2="56"/>
</g>
<g>
<line class="fg_stroke" x1="312" x2="314" y1="60" y2="60"/>
</g>
<g>
<text class="fg_fill" x="1" y="12">
██████
</text>
</g>
<g>
<text class="fg_fill" x="1" y="28">
██
</text>
</g>
<g>
<text class="fg_fill" x="1" y="44">
██████
</text>
</g>
<g>
<text class="fg_fill" x="1" y="60">
██
</text>
</g>
<g>
<text class="fg_fill" x="1" y="76">
██
</text>
</g>
<g>
<text class="fg_fill" x="41" y="28">
██
</text>
</g>
<g>
<text class="fg_fill" x="41" y="60">
██
</text>
</g>
<g>
<text class="fg_fill" x="41" y="76">
██
</text>
</g>
<g>
<text class="fg_fill" x="65" y="12">
███████
</text>
</g>
<g>
<text class="fg_fill" x="65" y="28">
██
</text>
</g>
<g>
<text class="fg_fill" x="65" y="44">
█████
</text>
</g>
<g>
<text class="fg_fill" x="65" y="60">
██
</text>
</g>
<g>
<text class="fg_fill" x="65" y="76">
███████
</text>
</g>
<g>
<text class="fg_fill" x="129" y="28">
██
</text>
</g>
<g>
<text class="fg_fill" x="129" y="44">
██
</text>
</g>
<g>
<text class="fg_fill" x="129" y="60">
██
</text>
</g>
<g>
<text class="fg_fill" x="137" y="12">
██████
</text>
</g>
<g>
<text class="fg_fill" x="137" y="76">
██████
</text>
</g>
<g>
<text class="fg_fill" x="169" y="44">
███
</text>
</g>
<g>
<text class="fg_fill" x="177" y="60">
██
</text>
</g>
<g>
<text class="fg_fill" x="201" y="12">
██
</text>
</g>
<g>
<text class="fg_fill" x="201" y="28">
██
</text>
</g>
<g>
<text class="fg_fill" x="201" y="44">
██
</text>
</g>
<g>
<text class="fg_fill" x="201" y="60">
██
</text>
</g>
<g>
<text class="fg_fill" x="201" y="76">
██
</text>
</g>
<g>
<text class="fg_fill" x="225" y="28">
███
</text>
</g>
<g>
<text class="fg_fill" x="233" y="12">
██
</text>
</g>
<g>
<text class="fg_fill" x="233" y="44">
██
</text>
</g>
<g>
<text class="fg_fill" x="233" y="60">
██
</text>
</g>
<g>
<text class="fg_fill" x="233" y="76">
██
</text>
</g>
<g>
<text class="fg_fill" x="257" y="28">
██
</text>
</g>
<g>
<text class="fg_fill" x="257" y="60">
██
</text>
</g>
<g>
<text class="fg_fill" x="265" y="12">
█████
</text>
</g>
<g>
<text class="fg_fill" x="265" y="44">
█████
</text>
</g>
<g>
<text class="fg_fill" x="265" y="76">
█████
</text>
</g>
<g>
<text class="fg_fill" x="297" y="28">
██
</text>
</g>
<g>
<text class="fg_fill" x="297" y="60">
██
</text>
</g>
</svg>